<?xml version="1.0" encoding="utf-8"?>
<!-- Generator: Adobe Illustrator 21.1.0, SVG Export Plug-In . SVG Version: 6.00 Build 0)  -->
<svg version="1.1" id="Layer_1" xmlns="http://www.w3.org/2000/svg" xmlns:xlink="http://www.w3.org/1999/xlink" x="0px" y="0px"
	 viewBox="0 0 680.7 233.4" style="enable-background:new 0 0 680.7 233.4;" xml:space="preserve">
<style type="text/css">
	.st0{fill:#636362;}
	.st1{fill:#AC1A17;}
</style>
<g>
	<g>
		<g>
			<g id="Shape_4_copy_3_36_">
				<g>
					<path class="st0" d="M126.9,0C80.7,38.2,85.5,104.9,85.5,104.9l0.2,1.7l3.8-2.6c64.5-48.5,133.8,8,133.8,8l7.6,8l8-8L126.9,0z"
						/>
				</g>
			</g>
			<g id="Shape_5_copy_3_36_">
				<g>
					<path class="st0" d="M86.5,36.1L0,120l117.4,113.4l16.6-16C24.1,134.1,86.5,36.1,86.5,36.1z"/>
				</g>
			</g>
			<g id="Shape_8_copy_2_36_">
				<g>
					<path class="st1" d="M93.5,121.5c-3.6,39.4,54.4,81.6,54.4,81.6s68.2-68.4,68.2-69.8C156,81,93.5,121.5,93.5,121.5z"/>
				</g>
			</g>
		</g>
		<g>
			<path class="st0" d="M280.7,166.8L303,71.2h20l21.2,95.6h-19L322,150h-19.2l-2.9,16.8H280.7z M306.1,135.2h12.7
				c-1.4-6.8-2.5-13.8-3.6-21.1c-1-7.2-1.9-14.9-2.7-23c-0.4,3.6-0.9,7.2-1.4,10.8c-0.5,3.6-1.1,7.3-1.7,11L306.1,135.2z"/>
			<path class="st0" d="M400.9,166.8h-17.1v-9.4c-1.7,3.6-3.8,6.3-6.2,8c-2.4,1.8-5.1,2.7-8.2,2.7c-5.8,0-10.4-2.9-13.6-8.7
				c-3.3-5.8-4.9-14-4.9-24.6c0-10.5,1.6-18.6,4.9-24.3c3.3-5.7,8-8.6,14.1-8.6c2.7,0,5.3,0.8,7.6,2.4s4.4,4,6.3,7.4V65.4h17.1
				L400.9,166.8L400.9,166.8z M383.7,133.7c0-6.2-0.6-10.6-1.9-13.3c-1.2-2.7-3.2-4.1-6-4.1c-2.5,0-4.4,1.4-5.6,4.1
				c-1.1,2.8-1.7,7.3-1.7,13.4c0,3.1,0.2,5.7,0.5,8.1c0.3,2.3,0.8,4.2,1.4,5.8c1.3,3.1,3.3,4.6,5.9,4.6s4.5-1.4,5.7-4.2
				C383.1,145.1,383.7,140.4,383.7,133.7z"/>
			<path class="st1" d="M413.8,166.8l9.4-95.6h24.6l4.9,36.5c0.3,2.1,0.6,4.7,0.9,7.7c0.3,3,0.6,5.8,0.9,8.3
				c0.3,2.5,0.5,5.1,0.8,7.9c0.3,2.7,0.4,5.1,0.4,6.9l2-19.9c0.5-4.8,1-8.4,1.4-10.9l6.2-36.5h24.3l8,95.6h-19.3l-2-44.4l-0.2-4.7
				c0-3.6,0-6.5-0.1-8.6s-0.2-5.7-0.4-10.6s-0.3-8-0.3-9.3l-12.4,77.6h-13.8l-11.7-78.2c0,1.7-0.2,5.6-0.6,11.8
				c-0.4,6.2-0.6,11.6-0.6,16.1l-0.4,6.2l-2.9,44.1H413.8z"/>
			<path class="st0" d="M557.7,166.8h-16.6v-9.5c-1.8,3.4-3.9,6.1-6.4,7.9s-5.2,2.8-8.1,2.8c-6.1,0-10.7-2.8-14-8.5
				c-3.3-5.7-4.9-13.9-4.9-24.7c0-10.5,1.7-18.6,5-24.3c3.3-5.7,8-8.6,14-8.6c2.8,0,5.4,0.8,7.7,2.5c2.3,1.7,4.5,4.3,6.6,8v-9.8
				h16.6L557.7,166.8L557.7,166.8z M541.1,133.7c0-5.9-0.7-10.2-2-13.1c-1.4-2.8-3.5-4.2-6.4-4.2c-2.5,0-4.4,1.4-5.6,4.1
				c-1.1,2.7-1.7,7.2-1.7,13.3c0,6.2,0.6,10.8,1.9,13.8c1.3,3,3.2,4.5,5.9,4.5c2.7,0,4.8-1.5,6.1-4.4c0.7-1.5,1.1-3.3,1.4-5.6
				C540.9,139.9,541.1,137.1,541.1,133.7z"/>
			<path class="st0" d="M576.1,166.8v-50.4h-7v-13.8h7V84.1h17.7v18.5h7v13.8h-7v50.4H576.1z"/>
			<path class="st0" d="M611.2,85.4c0-2.9,1-5.4,2.9-7.4c2-2,4.4-3,7.3-3c2.7,0,5.1,1,7.1,3s3,4.5,3,7.3c0,2.7-1,5.1-2.9,7.1
				c-2,1.9-4.4,2.9-7.2,2.9c-2.9,0-5.3-0.9-7.3-2.8C612.2,90.7,611.2,88.3,611.2,85.4z M612.5,166.8v-64.2h17.7v64.2L612.5,166.8
				L612.5,166.8z"/>
			<path class="st0" d="M680.8,120.8c-1.3-1-2.7-1.8-4-2.3c-1.4-0.5-2.7-0.8-4-0.8c-3.4,0-6.1,1.5-8.1,4.5c-1,1.4-1.7,3.2-2.2,5.1
				c-0.5,2-0.8,4.2-0.8,6.8c0,5.2,1,9.3,3,12.2c2,2.9,4.9,4.3,8.6,4.3c1.4,0,2.6-0.3,3.9-0.8c1.2-0.5,2.4-1.4,3.6-2.6v16.9
				c-1.8,1.2-3.7,2.1-5.8,2.8c-2.1,0.6-4.2,0.9-6.4,0.9c-7.5,0-13.4-3-17.9-9s-6.7-14.1-6.7-24.4c0-10.1,2.2-18.2,6.7-24.2
				s10.4-9,17.9-9c2.1,0,4.2,0.2,6.2,0.7c1.1,0.2,2.1,0.5,2.9,0.7c0.9,0.3,1.9,0.6,3,1.1L680.8,120.8L680.8,120.8z"/>
		</g>
	</g>
</g>
</svg>
